<mxfile host="app.diagrams.net" modified="2020-11-25T11:18:18.854Z" agent="5.0 (iPad; CPU OS 12_4_1 like Mac OS X) AppleWebKit/605.1.15 (KHTML, like Gecko) Version/12.1.2 Mobile/15E148 Safari/604.1" etag="Ddd9bVFkTz3sWHV6tnaM" version="13.10.2" type="github">
  <diagram id="fEeuchYt1Fdf4EXDy3nW" name="Page-1">
    <mxGraphModel dx="510" dy="779" grid="1" gridSize="10" guides="1" tooltips="1" connect="1" arrows="1" fold="1" page="1" pageScale="1" pageWidth="827" pageHeight="1169" math="0" shadow="0">
      <root>
        <mxCell id="0" />
        <mxCell id="1" parent="0" />
        <mxCell id="KvR43XwzuJe5_ahxuQdV-3" value="" style="edgeStyle=orthogonalEdgeStyle;rounded=0;orthogonalLoop=1;jettySize=auto;html=1;" edge="1" parent="1" source="KvR43XwzuJe5_ahxuQdV-1" target="KvR43XwzuJe5_ahxuQdV-2">
          <mxGeometry relative="1" as="geometry" />
        </mxCell>
        <mxCell id="KvR43XwzuJe5_ahxuQdV-1" value="2020/11/25&lt;br&gt;顺德" style="rounded=0;whiteSpace=wrap;html=1;" vertex="1" parent="1">
          <mxGeometry x="80" y="80" width="120" height="60" as="geometry" />
        </mxCell>
        <mxCell id="KvR43XwzuJe5_ahxuQdV-2" value="早茶" style="whiteSpace=wrap;html=1;rounded=0;" vertex="1" parent="1">
          <mxGeometry x="80" y="220" width="120" height="60" as="geometry" />
        </mxCell>
      </root>
    </mxGraphModel>
  </diagram>
</mxfile>
